<?xml version="1.0" standalone="no"?>
<!DOCTYPE svg PUBLIC "-//W3C//DTD SVG 20010904//EN"
 "http://www.w3.org/TR/2001/REC-SVG-20010904/DTD/svg10.dtd">
<svg version="1.0" xmlns="http://www.w3.org/2000/svg"
 width="303.000000pt" height="323.000000pt" viewBox="0 0 303.000000 323.000000"
 preserveAspectRatio="xMidYMid meet">

<g transform="translate(0.000000,323.000000) scale(0.100000,-0.100000)"
fill="#000000" stroke="none">
<path d="M2550 2510 c0 -5 7 -10 15 -10 8 0 15 5 15 10 0 6 -7 10 -15 10 -8 0
-15 -4 -15 -10z"/>
<path d="M2528 2483 c6 -2 18 -2 25 0 6 3 1 5 -13 5 -14 0 -19 -2 -12 -5z"/>
<path d="M2610 2480 c12 -8 11 -10 -7 -10 -25 0 -31 -15 -10 -23 6 -3 -1 -6
-18 -6 -23 -1 -27 -4 -15 -11 12 -8 11 -10 -7 -10 -12 0 -24 -6 -26 -12 -4
-10 -8 -9 -16 2 -9 12 -11 11 -11 -7 0 -12 6 -24 13 -26 6 -3 -16 -6 -50 -6
-56 -1 -63 -3 -63 -21 0 -20 35 -29 42 -11 2 5 9 3 16 -5 11 -12 4 -14 -48
-14 -53 0 -60 -2 -60 -20 0 -20 35 -29 42 -11 2 5 9 3 16 -5 11 -12 5 -14 -37
-14 -35 0 -51 -4 -55 -16 -3 -8 -2 -12 4 -9 6 3 10 0 10 -7 0 -10 2 -10 9 1 7
11 9 11 14 0 4 -10 6 -9 6 4 1 9 6 17 12 17 6 0 8 -7 5 -16 -3 -9 -6 -18 -6
-20 0 -2 -18 -4 -41 -4 -39 0 -79 -23 -64 -38 3 -4 12 1 19 11 8 10 26 17 44
17 26 0 34 -6 48 -35 9 -19 20 -35 25 -35 5 0 9 -6 9 -12 0 -7 14 -40 30 -72
118 -232 120 -625 5 -855 -14 -27 -25 -52 -25 -55 0 -4 -8 -19 -19 -34 -10
-15 -34 -52 -54 -83 -40 -62 -142 -170 -202 -215 -22 -16 -42 -31 -45 -34 -29
-32 -216 -126 -267 -136 -18 -3 -33 -10 -33 -14 0 -16 -178 -40 -301 -40 -125
0 -311 24 -317 41 -2 5 -10 9 -17 9 -21 0 -109 31 -115 40 -8 13 -81 40 -106
40 -25 0 -33 -15 -11 -23 6 -3 1 -6 -13 -6 -20 -1 -22 -3 -10 -11 10 -6 11
-10 3 -10 -7 0 -13 -7 -13 -15 0 -10 -10 -15 -27 -16 -16 0 -22 -3 -16 -6 10
-3 10 -8 -1 -19 -17 -16 -30 -19 -21 -4 3 6 -3 10 -14 10 -14 0 -21 -6 -21
-20 0 -11 5 -20 11 -20 6 0 4 -7 -5 -15 -18 -18 -43 -19 -49 -2 -3 6 -6 2 -6
-10 -1 -13 4 -23 10 -23 12 0 -10 -25 -29 -31 -14 -5 412 -255 491 -288 133
-57 298 -69 439 -32 97 25 96 24 522 270 268 154 375 221 423 265 103 94 174
212 215 353 22 76 23 90 23 538 0 518 -1 529 -75 680 -44 91 -132 205 -158
205 -15 0 -15 -2 -2 -10z m-130 -130 c0 -5 -4 -10 -10 -10 -5 0 -10 5 -10 10
0 6 5 10 10 10 6 0 10 -4 10 -10z m-50 -50 c0 -5 -4 -10 -10 -10 -5 0 -10 5
-10 10 0 6 5 10 10 10 6 0 10 -4 10 -10z"/>
<path d="M2500 2460 c0 -5 6 -10 14 -10 8 0 18 5 21 10 3 6 -3 10 -14 10 -12
0 -21 -4 -21 -10z"/>
<path d="M2478 2433 c6 -2 18 -2 25 0 6 3 1 5 -13 5 -14 0 -19 -2 -12 -5z"/>
<path d="M2450 2400 c0 -13 7 -20 20 -20 13 0 20 7 20 20 0 13 -7 20 -20 20
-13 0 -20 -7 -20 -20z"/>
<path d="M2425 2390 c-3 -5 -1 -10 4 -10 6 0 11 5 11 10 0 6 -2 10 -4 10 -3 0
-8 -4 -11 -10z"/>
<path d="M2188 2113 c7 -3 16 -2 19 1 4 3 -2 6 -13 5 -11 0 -14 -3 -6 -6z"/>
<path d="M2160 2090 c0 -5 7 -10 15 -10 8 0 15 5 15 10 0 6 -7 10 -15 10 -8 0
-15 -4 -15 -10z"/>
<path d="M2138 2063 c6 -2 18 -2 25 0 6 3 1 5 -13 5 -14 0 -19 -2 -12 -5z"/>
<path d="M2208 2063 c7 -3 16 -2 19 1 4 3 -2 6 -13 5 -11 0 -14 -3 -6 -6z"/>
<path d="M2105 2040 c3 -5 -1 -10 -9 -10 -9 0 -16 -4 -16 -10 0 -5 9 -10 20
-10 13 0 20 7 20 20 0 11 -5 20 -11 20 -5 0 -7 -4 -4 -10z"/>
<path d="M2130 2030 c0 -15 7 -20 28 -21 27 -2 27 -2 2 -6 -14 -3 -28 -10 -32
-17 -6 -8 -8 -8 -8 2 0 6 -9 12 -20 12 -13 0 -20 -7 -20 -20 0 -15 7 -20 28
-21 25 -2 26 -2 3 -6 -13 -3 -31 -11 -38 -19 -19 -18 -37 -18 -29 1 3 8 1 15
-4 15 -6 0 -10 -4 -10 -10 0 -5 -11 -10 -25 -10 -50 0 -24 -20 28 -21 28 -1
41 -4 27 -6 -14 -3 -28 -10 -32 -17 -6 -8 -8 -8 -8 2 0 16 -28 15 -46 -2 -18
-19 -18 -26 1 -26 8 0 15 7 15 15 0 8 5 15 10 15 6 0 10 -6 10 -14 0 -8 6 -17
13 -19 6 -3 -1 -6 -18 -6 -23 -1 -27 -4 -15 -11 12 -8 11 -10 -7 -10 -23 0
-33 -20 -10 -20 9 0 8 -3 -2 -9 -11 -7 -11 -9 0 -14 9 -3 6 -6 -6 -6 -25 -1
-59 -37 -42 -45 7 -2 3 -5 -8 -5 -25 -1 -59 -37 -42 -45 7 -2 0 -5 -15 -5 -16
-1 -28 -7 -28 -13 0 -9 -4 -8 -10 2 -8 12 -10 11 -10 -7 0 -12 6 -24 13 -26 6
-3 -5 -6 -25 -6 -31 -1 -38 -5 -38 -20 0 -11 6 -22 13 -24 6 -3 -5 -6 -25 -6
-31 -1 -38 -5 -38 -20 0 -11 6 -22 13 -24 6 -3 -13 -7 -43 -8 -51 -2 -52 -3
-13 -6 42 -4 42 -4 22 -24 -12 -12 -34 -20 -61 -21 l-43 -1 37 -4 c36 -4 37
-4 17 -24 -10 -10 -27 -19 -36 -19 -15 0 -16 -2 -3 -10 10 -6 11 -10 3 -10 -7
0 -13 -7 -13 -15 0 -10 -10 -15 -27 -16 -16 0 -22 -3 -16 -6 10 -3 10 -8 -1
-19 -17 -16 -46 -19 -46 -4 0 6 -7 10 -15 10 -21 0 -19 -9 7 -31 11 -11 16
-19 10 -19 -7 0 -12 -9 -12 -20 0 -15 7 -20 28 -21 51 -2 85 3 100 14 29 24
102 100 102 109 0 15 41 8 91 -14 41 -19 49 -27 49 -49 0 -63 -98 -176 -174
-200 -22 -7 -45 -16 -50 -21 -13 -11 -169 -10 -182 1 -12 11 -96 31 -133 31
-38 0 -41 -17 -3 -23 l27 -4 -30 -2 c-23 -1 -27 -3 -15 -11 12 -8 11 -10 -7
-10 -25 0 -31 -15 -10 -23 6 -3 -1 -6 -18 -6 -23 -1 -27 -4 -15 -11 12 -8 11
-10 -7 -10 -27 0 -31 -17 -5 -23 9 -3 1 -6 -18 -7 -20 -1 -27 -4 -17 -7 18 -5
18 -5 0 -18 -13 -10 -20 -10 -25 -2 -5 7 -8 4 -8 -10 0 -12 6 -24 13 -26 6 -3
-5 -6 -25 -6 -31 -1 -38 -5 -38 -20 0 -11 6 -22 13 -24 6 -3 0 -6 -15 -6 -55
-2 -24 -31 62 -60 36 -12 74 -26 85 -31 83 -38 375 -38 460 0 11 5 49 18 85
30 36 12 67 25 70 28 3 4 23 16 45 27 22 11 46 26 55 33 130 108 160 135 165
152 3 11 15 25 26 30 10 6 19 16 19 23 0 7 8 22 19 33 25 28 85 157 101 219 7
28 18 56 24 64 15 19 15 310 0 342 -6 13 -20 58 -29 99 -10 41 -21 77 -25 80
-4 3 -17 24 -29 48 -23 45 -50 55 -77 27 -9 -8 -20 -15 -26 -15 -5 0 -8 7 -4
15 3 8 1 15 -4 15 -6 0 -10 -9 -10 -20z m-20 -50 c0 -5 -4 -10 -10 -10 -5 0
-10 5 -10 10 0 6 5 10 10 10 6 0 10 -4 10 -10z"/>
<path d="M2055 1990 c3 -5 -1 -10 -9 -10 -9 0 -16 -4 -16 -10 0 -5 9 -10 20
-10 13 0 20 7 20 20 0 11 -5 20 -11 20 -5 0 -7 -4 -4 -10z"/>
<path d="M1890 1820 c0 -5 11 -10 25 -10 14 0 25 5 25 10 0 6 -11 10 -25 10
-14 0 -25 -4 -25 -10z"/>
<path d="M1888 1793 c6 -2 18 -2 25 0 6 3 1 5 -13 5 -14 0 -19 -2 -12 -5z"/>
<path d="M1860 1770 c0 -5 7 -10 15 -10 8 0 15 5 15 10 0 6 -7 10 -15 10 -8 0
-15 -4 -15 -10z"/>
<path d="M1838 1743 c6 -2 18 -2 25 0 6 3 1 5 -13 5 -14 0 -19 -2 -12 -5z"/>
<path d="M1810 1720 c0 -5 7 -10 15 -10 8 0 15 5 15 10 0 6 -7 10 -15 10 -8 0
-15 -4 -15 -10z"/>
<path d="M1788 1693 c6 -2 18 -2 25 0 6 3 1 5 -13 5 -14 0 -19 -2 -12 -5z"/>
<path d="M1746 1659 c-19 -19 -19 -19 20 -18 21 0 33 3 26 6 -10 4 -10 8 -1
19 19 23 -22 17 -45 -7z"/>
<path d="M1696 1609 c-19 -19 -19 -19 17 -19 30 0 37 4 37 20 0 26 -29 25 -54
-1z"/>
<path d="M1660 1560 c0 -13 7 -20 20 -20 13 0 20 7 20 20 0 13 -7 20 -20 20
-13 0 -20 -7 -20 -20z"/>
<path d="M1635 1550 c-3 -5 -1 -10 4 -10 6 0 11 5 11 10 0 6 -2 10 -4 10 -3 0
-8 -4 -11 -10z"/>
<path d="M1548 1423 c6 -2 18 -2 25 0 6 3 1 5 -13 5 -14 0 -19 -2 -12 -5z"/>
<path d="M1520 1400 c0 -5 7 -10 15 -10 8 0 15 5 15 10 0 6 -7 10 -15 10 -8 0
-15 -4 -15 -10z"/>
<path d="M1498 1373 c6 -2 18 -2 25 0 6 3 1 5 -13 5 -14 0 -19 -2 -12 -5z"/>
<path d="M1441 1318 c0 -13 3 -17 6 -10 2 6 11 12 19 12 9 0 12 5 9 10 -12 19
-35 10 -34 -12z"/>
<path d="M1290 1179 c0 -5 9 -9 20 -9 11 0 20 2 20 4 0 2 -9 6 -20 9 -11 3
-20 1 -20 -4z"/>
<path d="M1250 1130 c0 -5 7 -10 15 -10 8 0 15 5 15 10 0 6 -7 10 -15 10 -8 0
-15 -4 -15 -10z"/>
<path d="M1248 1103 c6 -2 18 -2 25 0 6 3 1 5 -13 5 -14 0 -19 -2 -12 -5z"/>
<path d="M1200 1080 c0 -5 7 -10 15 -10 8 0 15 5 15 10 0 6 -7 10 -15 10 -8 0
-15 -4 -15 -10z"/>
<path d="M1150 1030 c0 -5 11 -10 25 -10 14 0 25 5 25 10 0 6 -11 10 -25 10
-14 0 -25 -4 -25 -10z"/>
<path d="M1148 1003 c7 -3 16 -2 19 1 4 3 -2 6 -13 5 -11 0 -14 -3 -6 -6z"/>
<path d="M1106 969 c-17 -17 -18 -19 -3 -19 9 0 17 5 17 10 0 6 7 10 15 10 8
0 15 5 15 10 0 16 -23 10 -44 -11z"/>
<path d="M1044 920 c0 -11 6 -20 14 -20 7 0 22 9 34 20 l22 20 -21 0 c-12 0
-24 -6 -26 -12 -4 -10 -6 -10 -6 0 -2 20 -17 13 -17 -8z"/>
<path d="M900 760 c0 -5 5 -10 11 -10 5 0 7 5 4 10 -3 6 -8 10 -11 10 -2 0 -4
-4 -4 -10z"/>
<path d="M878 733 c6 -2 18 -2 25 0 6 3 1 5 -13 5 -14 0 -19 -2 -12 -5z"/>
<path d="M928 733 c7 -3 16 -2 19 1 4 3 -2 6 -13 5 -11 0 -14 -3 -6 -6z"/>
<path d="M828 683 c6 -2 18 -2 25 0 6 3 1 5 -13 5 -14 0 -19 -2 -12 -5z"/>
<path d="M870 675 c0 -8 5 -15 10 -15 6 0 10 7 10 15 0 8 -4 15 -10 15 -5 0
-10 -7 -10 -15z"/>
<path d="M808 633 c6 -2 18 -2 25 0 6 3 1 5 -13 5 -14 0 -19 -2 -12 -5z"/>
<path d="M750 590 c0 -5 9 -10 21 -10 11 0 17 5 14 10 -3 6 -13 10 -21 10 -8
0 -14 -4 -14 -10z"/>
<path d="M700 540 c0 -5 9 -10 21 -10 11 0 17 5 14 10 -3 6 -13 10 -21 10 -8
0 -14 -4 -14 -10z"/>
<path d="M689 511 c12 -8 51 -4 51 5 0 2 -15 4 -32 4 -23 0 -29 -3 -19 -9z"/>
</g>
</svg>
