<svg version="1.1" id="Layer_1" xmlns="http://www.w3.org/2000/svg" xmlns:xlink="http://www.w3.org/1999/xlink" x="0px" y="0px"
	 width="100%" viewBox="0 0 303 323" enable-background="new 0 0 303 323" xml:space="preserve">
<path fill="#000001" opacity="1.000000" stroke="none" 
	d="
M304.000000,120.000000 
	C304.000000,188.333328 304.000000,256.166656 304.000000,324.000000 
	C203.000000,324.000000 102.000000,324.000000 1.000000,324.000000 
	C1.000000,216.333328 1.000000,108.666664 1.000000,1.000000 
	C102.000000,1.000000 203.000000,1.000000 304.000000,1.000000 
	C304.000000,40.500000 304.000000,80.000000 304.000000,120.000000 
M137.770782,308.196686 
	C141.846603,308.474792 145.922409,308.752899 150.893524,309.237732 
	C155.262390,308.769165 159.631256,308.300598 164.733185,307.860657 
	C167.489838,306.951630 170.246490,306.042633 173.761902,305.187500 
	C180.870941,301.533447 187.979996,297.879395 195.784805,294.063690 
	C207.185883,287.363678 218.586960,280.663666 230.691040,273.884888 
	C237.588669,269.914612 244.611328,266.144745 251.359436,261.934784 
	C268.615662,251.169098 279.990906,236.094223 284.688446,215.218918 
	C285.132599,209.478058 285.576752,203.737213 286.226746,197.089813 
	C286.156982,193.059723 286.087189,189.029648 286.224213,184.129623 
	C286.155334,181.750946 286.086456,179.372269 286.226532,176.113663 
	C286.157135,173.408508 286.087738,170.703339 286.225677,167.084671 
	C286.155975,162.052902 286.086273,157.021149 286.224060,151.073349 
	C286.110809,142.047653 285.997559,133.021957 285.981934,123.102753 
	C285.760162,113.464851 283.873169,104.243889 279.066895,95.039459 
	C275.647247,89.907486 272.227600,84.775513 268.569550,78.970291 
	C264.386414,75.294838 260.203247,71.619377 255.731964,67.326996 
	C249.788956,63.893131 243.845932,60.459267 237.496231,56.458035 
	C235.110260,55.095566 232.732986,53.717598 230.336670,52.373589 
	C223.561661,48.573719 216.778839,44.787766 209.620209,40.425995 
	C201.738937,35.971825 193.857681,31.517658 185.521210,26.495859 
	C184.339706,25.997498 183.190048,25.396761 181.971497,25.017469 
	C174.318054,22.635269 166.649292,20.302359 158.654205,17.760653 
	C158.654205,17.760653 158.300095,17.907259 157.997726,17.630594 
	C157.710754,17.496990 157.459900,17.546391 156.343185,17.415272 
	C152.175491,17.485001 148.007797,17.554728 143.301254,17.435116 
	C142.765060,17.590925 142.228882,17.746737 140.880569,17.789026 
	C135.588669,19.202286 130.296768,20.615545 124.263199,22.047569 
	C121.996887,23.053833 119.626328,23.876543 117.480644,25.095200 
	C99.224869,35.463699 81.028038,45.935936 62.776669,56.312233 
	C50.044132,63.550957 37.369873,70.755646 28.348280,82.883064 
	C15.619396,99.994080 12.471210,119.368149 14.022235,140.928360 
	C14.071216,149.285248 14.120197,157.642151 14.024147,166.926376 
	C14.072227,173.950653 14.120305,180.974915 14.022973,188.926498 
	C14.351241,198.313904 12.731718,207.851242 16.099266,217.766327 
	C18.450434,223.509735 20.801600,229.253159 23.259838,235.673569 
	C27.522852,241.046249 31.785866,246.418915 36.353981,252.403610 
	C41.567608,256.144714 46.781235,259.885834 52.600353,264.017365 
	C58.436947,267.332397 64.273544,270.647430 70.528229,274.495178 
	C78.631920,279.121246 86.735611,283.747284 95.312012,288.843109 
	C100.992622,291.992920 106.673233,295.142761 112.805809,298.866211 
	C118.203636,301.213257 123.601471,303.560303 129.603043,306.376068 
	C132.068314,306.878448 134.533569,307.380829 137.770782,308.196686 
z"/>
<path fill="#219FFE" opacity="1.000000" stroke="none" 
	d="
M14.169177,165.999039 
	C14.120197,157.642151 14.071216,149.285248 14.428297,140.388657 
	C16.848932,138.436966 19.179737,137.320969 20.824879,135.563217 
	C29.202707,126.611923 37.307293,117.404877 45.686714,108.455116 
	C60.558624,92.570946 75.570831,76.818207 90.502754,60.990124 
	C101.101189,49.755627 111.703346,38.523918 122.192627,27.188055 
	C123.482315,25.794268 124.084236,23.764080 125.004875,22.028809 
	C130.296768,20.615545 135.588669,19.202286 141.560989,17.857899 
	C142.774307,17.825998 143.307205,17.725227 143.840103,17.624454 
	C148.007797,17.554728 152.175491,17.485001 156.965820,17.642059 
	C157.588455,17.868845 157.943008,17.911388 157.943008,17.911388 
	C157.943008,17.911388 158.300095,17.907259 158.300095,17.907259 
	C158.300095,17.907259 158.654205,17.760653 158.749847,18.199390 
	C157.466461,20.687281 156.338898,22.973822 154.666168,24.745735 
	C146.029388,33.894711 137.155472,42.820908 128.572937,52.019508 
	C125.108002,55.733166 122.173759,59.941978 118.671555,64.102333 
	C98.455536,71.109138 81.541214,82.400421 69.322166,99.550346 
	C63.029041,108.382996 58.586514,118.534172 52.926666,128.090927 
	C51.122513,128.826813 49.367794,129.247864 48.329708,130.346222 
	C41.075729,138.021423 34.044632,145.907349 26.787502,153.579498 
	C22.734558,157.864227 18.385044,161.868423 14.169177,165.999039 
z"/>
<path fill="#1BA1FD" opacity="1.000000" stroke="none" 
	d="
M124.634033,22.038189 
	C124.084236,23.764080 123.482315,25.794268 122.192627,27.188055 
	C111.703346,38.523918 101.101189,49.755627 90.502754,60.990124 
	C75.570831,76.818207 60.558624,92.570946 45.686714,108.455116 
	C37.307293,117.404877 29.202707,126.611923 20.824879,135.563217 
	C19.179737,137.320969 16.848932,138.436966 14.499969,139.924927 
	C12.471210,119.368149 15.619396,99.994080 28.348280,82.883064 
	C37.369873,70.755646 50.044132,63.550957 62.776669,56.312233 
	C81.028038,45.935936 99.224869,35.463699 117.480644,25.095200 
	C119.626328,23.876543 121.996887,23.053833 124.634033,22.038189 
z"/>
<path fill="#4189F9" opacity="1.000000" stroke="none" 
	d="
M237.902924,57.025402 
	C243.845932,60.459267 249.788956,63.893131 255.798828,67.974533 
	C255.238251,69.583466 254.733139,70.657936 253.964752,71.488998 
	C244.862961,81.333321 235.743774,91.161781 226.585281,100.953346 
	C216.404037,111.838326 206.135284,122.641655 195.985779,133.556000 
	C189.343018,140.699356 183.023300,148.151260 176.215668,155.130157 
	C171.989090,159.463058 167.120728,163.169952 162.211304,166.942749 
	C160.109024,166.462006 158.338821,165.992874 156.562195,165.967117 
	C150.094177,165.873337 143.620819,165.806473 137.156006,165.977295 
	C133.895111,166.063477 132.802841,164.807251 132.782379,161.615799 
	C132.762207,158.467987 134.092484,157.615402 136.975677,157.685486 
	C142.446350,157.818451 147.924942,157.807648 153.396225,157.682159 
	C158.423828,157.566849 160.271637,153.391693 162.095520,149.826233 
	C162.750854,148.545181 161.341095,146.207733 160.958588,143.994400 
	C164.107452,139.943802 167.171524,136.251221 170.518188,132.762115 
	C174.545395,138.459335 174.971771,138.548981 181.639984,135.244553 
	C187.088394,132.544632 187.441681,131.228897 184.055786,126.318123 
	C182.658905,124.292114 181.279037,122.254356 180.079285,119.925560 
	C181.952209,118.081108 183.733353,116.624268 185.305542,114.968964 
	C191.617584,108.323257 197.864914,101.616089 204.539337,94.938934 
	C208.776550,95.083344 216.436203,90.974480 216.934784,87.409027 
	C217.243851,85.198677 214.819077,82.606033 213.978607,80.090096 
	C216.777939,77.833565 219.327255,75.780106 221.640869,73.488678 
	C227.121063,68.061005 232.489380,62.520374 237.902924,57.025402 
z"/>
<path fill="#4686F9" opacity="1.000000" stroke="none" 
	d="
M162.540436,167.157822 
	C167.120728,163.169952 171.989090,159.463058 176.215668,155.130157 
	C183.023300,148.151260 189.343018,140.699356 195.985779,133.556000 
	C206.135284,122.641655 216.404037,111.838326 226.585281,100.953346 
	C235.743774,91.161781 244.862961,81.333321 253.964752,71.488998 
	C254.733139,70.657936 255.238251,69.583466 255.942871,68.283005 
	C260.203247,71.619377 264.386414,75.294838 268.345581,79.489441 
	C265.603790,82.649742 263.059784,85.266510 260.573151,87.936729 
	C253.677582,95.341400 246.805908,102.768311 239.651794,109.972198 
	C237.313248,107.205711 236.122559,103.077278 231.540359,104.673172 
	C224.548279,107.108406 222.046783,113.535721 225.146515,120.688690 
	C219.321732,127.922752 213.900940,135.050735 207.816772,141.558517 
	C193.071014,157.330963 177.944443,172.747009 163.155563,188.479858 
	C160.635086,191.161224 159.027664,194.700851 156.598450,197.969269 
	C145.959930,199.012100 136.728424,187.697205 136.545563,179.420029 
	C141.835297,179.420029 147.124924,179.528458 152.408127,179.390564 
	C158.073532,179.242676 163.118500,173.032455 162.540436,167.157822 
z"/>
<path fill="#3B8DFA" opacity="1.000000" stroke="none" 
	d="
M51.994865,263.626923 
	C46.781235,259.885834 41.567608,256.144714 36.277290,251.778137 
	C45.796761,240.588867 55.392918,230.025085 65.323517,219.549072 
	C74.041832,219.903030 79.248901,212.525986 75.930931,205.100632 
	C75.527527,204.197830 75.224052,203.250381 74.964172,201.967865 
	C76.365517,199.411667 77.676956,197.211212 79.180939,194.795685 
	C79.586098,194.049927 79.798706,193.519211 80.344101,192.914841 
	C85.303734,188.448883 89.881004,184.002304 94.590935,179.700989 
	C95.828148,178.571136 97.476265,177.891235 99.186005,177.265320 
	C102.698853,178.160355 105.947876,179.248367 109.226402,179.346008 
	C120.014778,179.667404 117.072197,178.509659 120.319656,187.909653 
	C120.370888,188.057922 120.331711,188.237442 120.148170,188.727936 
	C109.849861,200.283112 99.888573,211.653091 89.584175,222.703094 
	C79.176994,233.863327 68.375549,244.655045 57.874649,255.729416 
	C55.632351,258.094177 53.940372,260.980743 51.994865,263.626923 
z"/>
<path fill="#4188F9" opacity="1.000000" stroke="none" 
	d="
M52.297611,263.822144 
	C53.940372,260.980743 55.632351,258.094177 57.874649,255.729416 
	C68.375549,244.655045 79.176994,233.863327 89.584175,222.703094 
	C99.888573,211.653091 109.849861,200.283112 120.413239,188.971954 
	C124.967873,195.841629 128.385544,203.345840 135.547791,207.727844 
	C129.494370,213.887589 123.695808,219.758698 118.152092,225.861328 
	C114.866806,229.477844 111.983742,233.459763 108.582535,237.173813 
	C104.955627,234.839493 101.609818,232.686234 98.393417,230.354462 
	C95.609703,228.336380 93.015656,228.016510 90.333672,230.456696 
	C88.861794,231.795883 87.346977,233.097244 85.769875,234.309418 
	C82.538490,236.793091 82.944244,239.346100 85.722534,241.724548 
	C88.455330,244.064041 91.385841,246.172577 94.139618,248.766174 
	C93.091415,250.867233 92.415131,252.842407 91.123528,254.254944 
	C86.771950,259.014069 82.308456,263.683868 77.669151,268.161316 
	C75.398338,270.352905 72.645058,272.044556 70.110138,273.962463 
	C64.273544,270.647430 58.436947,267.332397 52.297611,263.822144 
z"/>
<path fill="#6071F4" opacity="1.000000" stroke="none" 
	d="
M286.017426,184.999542 
	C286.087189,189.029648 286.156982,193.059723 285.774872,197.612686 
	C283.435425,199.424026 281.243652,200.427353 279.717865,202.054962 
	C275.312439,206.754318 271.331390,211.852768 266.905975,216.531815 
	C247.286163,237.276215 227.502060,257.865570 207.936523,278.660736 
	C203.336349,283.550049 199.355057,289.021637 195.089035,294.225342 
	C187.979996,297.879395 180.870941,301.533447 173.403580,304.783875 
	C173.763062,302.734650 174.129730,300.775970 175.264999,299.502472 
	C178.562332,295.803650 182.202072,292.412506 185.645935,288.841309 
	C195.546127,278.575073 205.503845,268.362244 215.275223,257.974426 
	C227.110336,245.392685 238.786270,232.661087 250.514862,219.979324 
	C258.182861,211.688141 265.645203,203.196762 273.551697,195.140533 
	C277.280212,191.341431 281.836304,188.354492 286.017426,184.999542 
z"/>
<path fill="#2899FC" opacity="1.000000" stroke="none" 
	d="
M118.998009,63.925453 
	C122.173759,59.941978 125.108002,55.733166 128.572937,52.019508 
	C137.155472,42.820908 146.029388,33.894711 154.666168,24.745735 
	C156.338898,22.973822 157.466461,20.687281 158.915558,18.295639 
	C166.649292,20.302359 174.318054,22.635269 181.971497,25.017469 
	C183.190048,25.396761 184.339706,25.997498 185.675095,27.109835 
	C180.167297,34.304897 174.502975,40.883713 168.844940,47.467937 
	C165.557343,51.293720 162.279846,55.128189 158.531708,59.008430 
	C144.725967,58.135273 131.754440,60.167122 118.998009,63.925453 
z"/>
<path fill="#5C74F5" opacity="1.000000" stroke="none" 
	d="
M164.000122,307.832031 
	C159.631256,308.300598 155.262390,308.769165 150.513916,308.786499 
	C151.625641,306.187469 152.873108,303.809662 154.647186,301.928497 
	C168.071198,287.694183 181.638153,273.594574 195.033951,259.334015 
	C196.416763,257.861969 196.971512,255.612030 198.060471,253.414459 
	C218.063293,242.019562 233.736832,226.914978 243.658127,206.333450 
	C245.754440,205.796463 248.102112,205.459946 249.429749,204.115891 
	C260.245117,193.166504 270.843231,182.002838 281.589233,170.984161 
	C282.806427,169.736084 284.529724,168.981567 286.018341,167.998169 
	C286.087738,170.703339 286.157135,173.408508 285.773926,176.623993 
	C283.543091,178.298416 281.455841,179.171860 280.040039,180.676910 
	C273.899902,187.204086 268.052948,194.006912 261.919678,200.540771 
	C249.774445,213.479263 237.485275,226.282486 225.301392,239.184860 
	C207.175247,258.379913 189.008713,277.538269 171.066269,296.903931 
	C168.162231,300.038300 166.328552,304.164368 164.000122,307.832031 
z"/>
<path fill="#626FF3" opacity="1.000000" stroke="none" 
	d="
M195.436920,294.144531 
	C199.355057,289.021637 203.336349,283.550049 207.936523,278.660736 
	C227.502060,257.865570 247.286163,237.276215 266.905975,216.531815 
	C271.331390,211.852768 275.312439,206.754318 279.717865,202.054962 
	C281.243652,200.427353 283.435425,199.424026 285.671936,198.065948 
	C285.576752,203.737213 285.132599,209.478058 284.154907,215.642212 
	C282.053436,217.238159 280.288055,218.220673 278.947723,219.612503 
	C263.883667,235.255280 248.828705,250.908035 233.941116,266.718018 
	C232.116379,268.655792 231.281616,271.525726 229.988052,273.963684 
	C218.586960,280.663666 207.185883,287.363678 195.436920,294.144531 
z"/>
<path fill="#507DF6" opacity="1.000000" stroke="none" 
	d="
M279.130341,95.737961 
	C283.873169,104.243889 285.760162,113.464851 285.594482,123.624603 
	C283.909546,124.850464 282.327209,125.284462 281.361633,126.303062 
	C275.794708,132.175476 270.519440,138.329468 264.849487,144.097183 
	C261.343445,147.663696 257.312073,150.713806 253.381622,153.675964 
	C253.214676,152.896255 253.182663,152.436325 253.332489,151.747086 
	C253.255188,150.672699 252.996033,149.827621 252.754547,148.581818 
	C251.155197,141.122711 249.538223,134.064316 248.286591,126.981201 
	C252.135147,123.829735 255.832977,120.908058 259.057068,117.533722 
	C265.879211,110.393707 272.454071,103.017387 279.130341,95.737961 
z"/>
<path fill="#3094FB" opacity="1.000000" stroke="none" 
	d="
M158.997818,58.958755 
	C162.279846,55.128189 165.557343,51.293720 168.844940,47.467937 
	C174.502975,40.883713 180.167297,34.304897 185.902695,27.393650 
	C193.857681,31.517658 201.738937,35.971825 209.786255,41.071129 
	C208.820908,43.458107 207.856033,45.340046 206.529037,46.917309 
	C201.049698,53.430073 195.460617,59.850502 189.525024,66.283806 
	C179.091415,63.828091 169.044617,61.393421 158.997818,58.958755 
z"/>
<path fill="#2A98FD" opacity="1.000000" stroke="none" 
	d="
M16.183960,216.998154 
	C12.731718,207.851242 14.351241,198.313904 14.417727,188.379532 
	C16.929480,185.994293 19.189638,184.295288 21.137886,182.292847 
	C28.318222,174.912720 35.341671,167.379410 42.560173,160.037460 
	C43.872852,158.702332 45.824146,157.995102 47.558441,157.459869 
	C47.760620,163.280502 47.884983,168.639282 47.858940,174.168472 
	C48.000576,174.896500 48.292622,175.454117 48.701172,176.413940 
	C48.899158,178.206635 48.980644,179.597092 48.838219,181.244141 
	C42.643906,188.599579 36.855732,195.863037 30.642300,202.742401 
	C26.113390,207.756729 21.023672,212.264542 16.183960,216.998154 
z"/>
<path fill="#388EFA" opacity="1.000000" stroke="none" 
	d="
M189.911850,66.304855 
	C195.460617,59.850502 201.049698,53.430073 206.529037,46.917309 
	C207.856033,45.340046 208.820908,43.458107 209.975693,41.356297 
	C216.778839,44.787766 223.561661,48.573719 230.336670,52.373589 
	C232.732986,53.717598 235.110260,55.095566 237.699585,56.741722 
	C232.489380,62.520374 227.121063,68.061005 221.640869,73.488678 
	C219.327255,75.780106 216.777939,77.833565 213.658905,79.999771 
	C205.291977,75.437843 197.601913,70.871346 189.911850,66.304855 
z"/>
<path fill="#5678F6" opacity="1.000000" stroke="none" 
	d="
M253.516541,153.995728 
	C257.312073,150.713806 261.343445,147.663696 264.849487,144.097183 
	C270.519440,138.329468 275.794708,132.175476 281.361633,126.303062 
	C282.327209,125.284462 283.909546,124.850464 285.545654,124.071358 
	C285.997559,133.021957 286.110809,142.047653 285.785339,151.608917 
	C283.802094,153.358673 282.097076,154.416763 280.739410,155.812698 
	C272.660614,164.119446 264.720001,172.561417 256.581543,180.808563 
	C255.170807,182.238159 253.037338,182.954559 251.198608,183.643860 
	C251.267715,182.580734 251.375885,181.874115 251.696167,181.075348 
	C251.960037,180.324448 252.011780,179.665710 252.074890,178.619705 
	C252.207153,177.207611 252.328079,176.182785 252.706085,175.005707 
	C253.044937,173.579132 253.126709,172.304794 253.225739,170.561096 
	C253.334198,164.726395 253.425369,159.361069 253.516541,153.995728 
z"/>
<path fill="#5F74F5" opacity="1.000000" stroke="none" 
	d="
M164.366638,307.846344 
	C166.328552,304.164368 168.162231,300.038300 171.066269,296.903931 
	C189.008713,277.538269 207.175247,258.379913 225.301392,239.184860 
	C237.485275,226.282486 249.774445,213.479263 261.919678,200.540771 
	C268.052948,194.006912 273.899902,187.204086 280.040039,180.676910 
	C281.455841,179.171860 283.543091,178.298416 285.669434,177.063965 
	C286.086456,179.372269 286.155334,181.750946 286.120819,184.564575 
	C281.836304,188.354492 277.280212,191.341431 273.551697,195.140533 
	C265.645203,203.196762 258.182861,211.688141 250.514862,219.979324 
	C238.786270,232.661087 227.110336,245.392685 215.275223,257.974426 
	C205.503845,268.362244 195.546127,278.575073 185.645935,288.841309 
	C182.202072,292.412506 178.562332,295.803650 175.264999,299.502472 
	C174.129730,300.775970 173.763062,302.734650 173.024200,304.756958 
	C170.246490,306.042633 167.489838,306.951630 164.366638,307.846344 
z"/>
<path fill="#4883F7" opacity="1.000000" stroke="none" 
	d="
M70.319183,274.228821 
	C72.645058,272.044556 75.398338,270.352905 77.669151,268.161316 
	C82.308456,263.683868 86.771950,259.014069 91.123528,254.254944 
	C92.415131,252.842407 93.091415,250.867233 94.492813,248.862015 
	C102.956200,252.444214 110.976410,256.314270 118.912262,260.505127 
	C115.829880,264.106079 112.756081,267.320709 109.850624,270.680908 
	C104.792145,276.531097 99.837486,282.471039 94.839310,288.373352 
	C86.735611,283.747284 78.631920,279.121246 70.319183,274.228821 
z"/>
<path fill="#3295FB" opacity="1.000000" stroke="none" 
	d="
M16.141613,217.382233 
	C21.023672,212.264542 26.113390,207.756729 30.642300,202.742401 
	C36.855732,195.863037 42.643906,188.599579 49.065842,181.545486 
	C51.724224,189.392288 53.931068,197.194290 55.794235,205.065933 
	C53.899593,206.324509 52.174393,207.344070 50.826557,208.730515 
	C43.354698,216.416428 36.038795,224.254959 28.505592,231.879288 
	C27.104681,233.297165 24.956224,233.976425 23.152767,234.996567 
	C20.801600,229.253159 18.450434,223.509735 16.141613,217.382233 
z"/>
<path fill="#4F7EF6" opacity="1.000000" stroke="none" 
	d="
M95.075661,288.608215 
	C99.837486,282.471039 104.792145,276.531097 109.850624,270.680908 
	C112.756081,267.320709 115.829880,264.106079 119.298721,260.496887 
	C127.179863,261.785126 134.590195,263.402405 141.976196,265.378113 
	C141.267197,267.021057 140.825134,268.535339 139.860092,269.554321 
	C130.742188,279.181885 121.535172,288.725098 112.353851,298.292603 
	C106.673233,295.142761 100.992622,291.992920 95.075661,288.608215 
z"/>
<path fill="#4982F7" opacity="1.000000" stroke="none" 
	d="
M279.098633,95.388710 
	C272.454071,103.017387 265.879211,110.393707 259.057068,117.533722 
	C255.832977,120.908058 252.135147,123.829735 248.044601,126.722099 
	C244.933121,121.053955 242.428955,115.620201 239.924805,110.186447 
	C246.805908,102.768311 253.677582,95.341400 260.573151,87.936729 
	C263.059784,85.266510 265.603790,82.649742 268.464783,79.826065 
	C272.227600,84.775513 275.647247,89.907486 279.098633,95.388710 
z"/>
<path fill="#269CFD" opacity="1.000000" stroke="none" 
	d="
M47.480633,156.998016 
	C45.824146,157.995102 43.872852,158.702332 42.560173,160.037460 
	C35.341671,167.379410 28.318222,174.912720 21.137886,182.292847 
	C19.189638,184.295288 16.929480,185.994293 14.490433,187.915878 
	C14.120305,180.974915 14.072227,173.950653 14.096661,166.462708 
	C18.385044,161.868423 22.734558,157.864227 26.787502,153.579498 
	C34.044632,145.907349 41.075729,138.021423 48.329708,130.346222 
	C49.367794,129.247864 51.122513,128.826813 52.895279,128.478363 
	C51.710361,135.242310 50.175735,141.620178 48.418266,148.087158 
	C48.191948,148.805557 48.188473,149.434830 48.237846,150.498383 
	C48.020676,152.954453 47.750656,154.976227 47.480633,156.998016 
z"/>
<path fill="#358FFA" opacity="1.000000" stroke="none" 
	d="
M23.206303,235.335068 
	C24.956224,233.976425 27.104681,233.297165 28.505592,231.879288 
	C36.038795,224.254959 43.354698,216.416428 50.826557,208.730515 
	C52.174393,207.344070 53.899593,206.324509 55.995140,205.346832 
	C59.356178,210.192490 62.172626,214.826889 64.989075,219.461288 
	C55.392918,230.025085 45.796761,240.588867 36.124741,251.472122 
	C31.785866,246.418915 27.522852,241.046249 23.206303,235.335068 
z"/>
<path fill="#547AF6" opacity="1.000000" stroke="none" 
	d="
M112.579834,298.579407 
	C121.535172,288.725098 130.742188,279.181885 139.860092,269.554321 
	C140.825134,268.535339 141.267197,267.021057 142.428848,265.244812 
	C149.885254,264.634796 156.864700,264.516510 163.818771,264.775452 
	C159.666428,270.230164 155.758209,275.506714 151.361420,280.338715 
	C144.686386,287.674408 137.629333,294.661377 130.850739,301.905212 
	C129.897049,302.924316 129.600189,304.558105 128.999298,305.907349 
	C123.601471,303.560303 118.203636,301.213257 112.579834,298.579407 
z"/>
<path fill="#5975F5" opacity="1.000000" stroke="none" 
	d="
M197.910477,253.723038 
	C196.971512,255.612030 196.416763,257.861969 195.033951,259.334015 
	C181.638153,273.594574 168.071198,287.694183 154.647186,301.928497 
	C152.873108,303.809662 151.625641,306.187469 150.066254,308.683136 
	C145.922409,308.752899 141.846603,308.474792 137.466919,307.712006 
	C140.600922,303.492371 144.029663,299.748962 147.478439,296.024139 
	C156.240707,286.560455 165.076706,277.163513 173.717087,267.589935 
	C175.189987,265.957947 175.840683,263.583923 177.183502,261.374695 
	C184.300690,258.705444 191.105576,256.214233 197.910477,253.723038 
z"/>
<path fill="#646CF0" opacity="1.000000" stroke="none" 
	d="
M230.339539,273.924286 
	C231.281616,271.525726 232.116379,268.655792 233.941116,266.718018 
	C248.828705,250.908035 263.883667,235.255280 278.947723,219.612503 
	C280.288055,218.220673 282.053436,217.238159 283.930847,216.019318 
	C279.990906,236.094223 268.615662,251.169098 251.359436,261.934784 
	C244.611328,266.144745 237.588669,269.914612 230.339539,273.924286 
z"/>
<path fill="#5B75F5" opacity="1.000000" stroke="none" 
	d="
M251.237686,184.000397 
	C253.037338,182.954559 255.170807,182.238159 256.581543,180.808563 
	C264.720001,172.561417 272.660614,164.119446 280.739410,155.812698 
	C282.097076,154.416763 283.802094,153.358673 285.681580,152.066925 
	C286.086273,157.021149 286.155975,162.052902 286.122009,167.541412 
	C284.529724,168.981567 282.806427,169.736084 281.589233,170.984161 
	C270.843231,182.002838 260.245117,193.166504 249.429749,204.115891 
	C248.102112,205.459946 245.754440,205.796463 243.797577,206.031158 
	C246.223022,198.308411 248.730347,191.154404 251.237686,184.000397 
z"/>
<path fill="#5979F6" opacity="1.000000" stroke="none" 
	d="
M176.871231,261.552673 
	C175.840683,263.583923 175.189987,265.957947 173.717087,267.589935 
	C165.076706,277.163513 156.240707,286.560455 147.478439,296.024139 
	C144.029663,299.748962 140.600922,303.492371 137.080948,307.555267 
	C134.533569,307.380829 132.068314,306.878448 129.301178,306.141724 
	C129.600189,304.558105 129.897049,302.924316 130.850739,301.905212 
	C137.629333,294.661377 144.686386,287.674408 151.361420,280.338715 
	C155.758209,275.506714 159.666428,270.230164 164.152344,264.619720 
	C168.631271,263.242065 172.751251,262.397369 176.871231,261.552673 
z"/>
<path fill="#2899FC" opacity="1.000000" stroke="none" 
	d="
M143.570679,17.529785 
	C143.307205,17.725227 142.774307,17.825998 141.967041,17.914660 
	C142.228882,17.746737 142.765060,17.590925 143.570679,17.529785 
z"/>
<path fill="#2899FC" opacity="1.000000" stroke="none" 
	d="
M158.148911,17.768927 
	C158.300095,17.907259 157.943008,17.911388 157.943008,17.911388 
	C157.943008,17.911388 157.588455,17.868845 157.416824,17.823822 
	C157.459900,17.546391 157.710754,17.496990 158.148911,17.768927 
z"/>
<path fill="#F9FCFF" opacity="1.000000" stroke="none" 
	d="
M65.323517,219.549072 
	C62.172626,214.826889 59.356178,210.192490 56.338821,205.277191 
	C53.931068,197.194290 51.724224,189.392288 49.289757,181.288910 
	C48.980644,179.597092 48.899158,178.206635 48.745922,176.138596 
	C48.452560,174.973373 48.230953,174.485718 48.009346,173.998062 
	C47.884983,168.639282 47.760620,163.280502 47.558449,157.459869 
	C47.750656,154.976227 48.020676,152.954453 48.423065,150.288788 
	C48.583996,149.095963 48.612556,148.547012 48.641113,147.998062 
	C50.175735,141.620178 51.710361,135.242310 53.276379,128.476990 
	C58.586514,118.534172 63.029041,108.382996 69.322166,99.550346 
	C81.541214,82.400421 98.455536,71.109138 118.671555,64.102333 
	C131.754440,60.167122 144.725967,58.135273 158.531708,59.008430 
	C169.044617,61.393421 179.091415,63.828091 189.525024,66.283806 
	C197.601913,70.871346 205.291977,75.437843 213.301743,80.094666 
	C214.819077,82.606033 217.243851,85.198677 216.934784,87.409027 
	C216.436203,90.974480 208.776550,95.083344 204.314850,94.677322 
	C201.925995,93.226723 200.243973,91.899513 198.389053,90.890038 
	C192.290695,87.571220 186.129639,84.367630 179.695648,80.850197 
	C176.728592,79.917702 174.092102,79.008743 171.382034,78.639061 
	C163.938446,77.623672 156.463974,76.834625 148.559479,75.828682 
	C145.079575,75.949677 142.041901,76.198006 138.730988,76.391762 
	C137.955704,76.519569 137.453690,76.701950 136.551392,76.851524 
	C117.772011,80.152260 101.739418,88.133690 88.928101,101.785110 
	C72.046356,119.773872 62.676586,140.764816 64.853790,166.445892 
	C66.566986,175.256561 68.370476,183.623123 70.169388,192.273346 
	C70.423096,193.046555 70.681389,193.536118 70.929298,194.357269 
	C71.497612,195.837631 72.076317,196.986435 72.699150,198.479507 
	C73.453606,199.990402 74.163933,201.157013 74.874260,202.323624 
	C75.224052,203.250381 75.527527,204.197830 75.930931,205.100632 
	C79.248901,212.525986 74.041832,219.903030 65.323517,219.549072 
z"/>
<path fill="#F9FBFF" opacity="1.000000" stroke="none" 
	d="
M135.909821,207.536545 
	C128.385544,203.345840 124.967873,195.841629 120.599777,188.646393 
	C120.331711,188.237442 120.370888,188.057922 120.319656,187.909653 
	C117.072197,178.509659 120.014778,179.667404 109.226402,179.346008 
	C105.947876,179.248367 102.698853,178.160355 99.232437,176.899963 
	C99.086876,175.541397 99.145195,174.808777 99.461044,173.868744 
	C102.800339,168.633652 106.306313,164.500992 113.218102,165.690948 
	C113.875092,165.804077 115.388733,163.236420 115.835548,161.716614 
	C116.446571,159.638260 116.049797,157.692429 113.070839,157.740463 
	C109.749847,157.794022 106.422768,157.826691 103.105942,157.687408 
	C99.297112,157.527466 98.070488,155.478317 99.868790,152.130707 
	C102.578079,147.087280 105.891060,142.909012 112.656876,144.204880 
	C116.252472,144.893539 117.979019,143.532349 119.289307,139.674606 
	C123.809937,126.364975 131.799530,115.968224 146.274567,111.733727 
	C147.048477,111.535164 147.542084,111.309647 148.484344,111.107880 
	C151.620193,110.956001 154.307388,110.780380 157.417389,110.689224 
	C166.513748,110.835060 173.466446,114.912689 179.891434,120.221947 
	C181.279037,122.254356 182.658905,124.292114 184.055786,126.318123 
	C187.441681,131.228897 187.088394,132.544632 181.639984,135.244553 
	C174.971771,138.548981 174.545395,138.459335 170.375641,132.469421 
	C163.862244,125.464012 156.555145,123.704224 148.833481,126.887550 
	C142.385910,129.545624 136.434250,137.758255 136.566238,144.352417 
	C144.658539,144.352417 152.766174,144.352417 160.873795,144.352417 
	C161.341095,146.207733 162.750854,148.545181 162.095520,149.826233 
	C160.271637,153.391693 158.423828,157.566849 153.396225,157.682159 
	C147.924942,157.807648 142.446350,157.818451 136.975677,157.685486 
	C134.092484,157.615402 132.762207,158.467987 132.782379,161.615799 
	C132.802841,164.807251 133.895111,166.063477 137.156006,165.977295 
	C143.620819,165.806473 150.094177,165.873337 156.562195,165.967117 
	C158.338821,165.992874 160.109024,166.462006 162.211304,166.942749 
	C163.118500,173.032455 158.073532,179.242676 152.408127,179.390564 
	C147.124924,179.528458 141.835297,179.420029 136.545563,179.420029 
	C136.728424,187.697205 145.959930,199.012100 156.979126,198.032562 
	C163.660965,197.479401 168.403336,194.559784 171.038574,189.542435 
	C173.713379,184.449829 176.796204,184.444641 181.333939,187.020294 
	C184.332336,188.573151 187.794189,189.451172 186.029236,194.020142 
	C180.207047,204.034439 172.284561,210.774170 160.541931,213.019867 
	C151.446045,213.737076 143.371674,212.001907 135.909821,207.536545 
z"/>
<path fill="#3B8FFA" opacity="1.000000" stroke="none" 
	d="
M180.079285,119.925560 
	C173.466446,114.912689 166.513748,110.835060 157.448120,110.354584 
	C161.925903,104.235275 166.914383,98.630852 171.622818,92.800293 
	C174.627182,89.079941 177.216980,85.024803 179.992661,81.119774 
	C186.129639,84.367630 192.290695,87.571220 198.389053,90.890038 
	C200.243973,91.899513 201.925995,93.226723 203.911682,94.670013 
	C197.864914,101.616089 191.617584,108.323257 185.305542,114.968964 
	C183.733353,116.624268 181.952209,118.081108 180.079285,119.925560 
z"/>
<path fill="#3E8FFA" opacity="1.000000" stroke="none" 
	d="
M160.958588,143.994400 
	C152.766174,144.352417 144.658539,144.352417 136.566238,144.352417 
	C136.434250,137.758255 142.385910,129.545624 148.833481,126.887550 
	C156.555145,123.704224 163.862244,125.464012 170.093048,132.265930 
	C167.171524,136.251221 164.107452,139.943802 160.958588,143.994400 
z"/>
<path fill="#F9FBFF" opacity="1.000000" stroke="none" 
	d="
M177.183502,261.374664 
	C172.751251,262.397369 168.631271,263.242065 164.177719,264.242493 
	C156.864700,264.516510 149.885254,264.634796 142.453156,264.886383 
	C134.590195,263.402405 127.179863,261.785126 119.383080,260.176086 
	C110.976410,256.314270 102.956200,252.444214 94.582787,248.478302 
	C91.385841,246.172577 88.455330,244.064041 85.722534,241.724548 
	C82.944244,239.346100 82.538490,236.793091 85.769875,234.309418 
	C87.346977,233.097244 88.861794,231.795883 90.333672,230.456696 
	C93.015656,228.016510 95.609703,228.336380 98.393417,230.354462 
	C101.609818,232.686234 104.955627,234.839493 108.787239,237.443054 
	C117.847832,240.598953 126.366432,243.382050 135.162048,246.348434 
	C145.988815,248.736313 156.519882,249.370483 167.414246,246.191483 
	C185.049973,243.102570 199.743347,234.940536 211.850098,222.594040 
	C225.314163,208.863419 234.053177,192.516724 236.020020,172.537140 
	C235.764771,164.051865 235.400543,156.025482 235.079529,147.594543 
	C233.835342,142.457474 232.547928,137.724915 231.252563,132.604950 
	C229.246033,128.245209 227.247421,124.272865 225.248810,120.300529 
	C222.046783,113.535721 224.548279,107.108406 231.540359,104.673172 
	C236.122559,103.077278 237.313248,107.205711 239.651794,109.972198 
	C242.428955,115.620201 244.933121,121.053955 247.679260,126.746811 
	C249.538223,134.064316 251.155197,141.122711 252.613434,148.818985 
	C252.686661,150.296707 252.918655,151.136536 253.150650,151.976379 
	C253.182663,152.436325 253.214676,152.896255 253.381622,153.675964 
	C253.425369,159.361069 253.334198,164.726395 252.996384,170.842438 
	C252.649506,172.781433 252.549255,173.969696 252.449005,175.157974 
	C252.328079,176.182785 252.207153,177.207611 251.893250,178.849380 
	C251.628204,180.033401 251.556137,180.600449 251.484070,181.167511 
	C251.375885,181.874115 251.267715,182.580734 251.198608,183.643860 
	C248.730347,191.154404 246.223022,198.308411 243.576233,205.764725 
	C233.736832,226.914978 218.063293,242.019562 198.060471,253.414459 
	C191.105576,256.214233 184.300690,258.705444 177.183502,261.374664 
z"/>
<path fill="#4983F8" opacity="1.000000" stroke="none" 
	d="
M225.146515,120.688690 
	C227.247421,124.272865 229.246033,128.245209 230.897308,132.670990 
	C227.275024,136.341095 223.928162,139.488251 220.738098,142.787033 
	C209.658936,154.243866 198.544769,165.669647 187.653305,177.303253 
	C185.022537,180.113297 183.196472,183.676712 181.000366,186.893692 
	C176.796204,184.444641 173.713379,184.449829 171.038574,189.542435 
	C168.403336,194.559784 163.660965,197.479401 157.379120,197.907288 
	C159.027664,194.700851 160.635086,191.161224 163.155563,188.479858 
	C177.944443,172.747009 193.071014,157.330963 207.816772,141.558517 
	C213.900940,135.050735 219.321732,127.922752 225.146515,120.688690 
z"/>
<path fill="#3294FC" opacity="1.000000" stroke="none" 
	d="
M179.695648,80.850197 
	C177.216980,85.024803 174.627182,89.079941 171.622818,92.800293 
	C166.914383,98.630852 161.925903,104.235275 157.025314,110.270119 
	C154.307388,110.780380 151.620193,110.956001 148.309204,110.950394 
	C147.121674,111.081703 146.557968,111.394234 145.994247,111.706772 
	C131.799530,115.968224 123.809937,126.364975 119.289307,139.674606 
	C117.979019,143.532349 116.252472,144.893539 112.656876,144.204880 
	C105.891060,142.909012 102.578079,147.087280 99.868790,152.130707 
	C98.070488,155.478317 99.297112,157.527466 103.105942,157.687408 
	C106.422768,157.826691 109.749847,157.794022 113.070839,157.740463 
	C116.049797,157.692429 116.446571,159.638260 115.835548,161.716614 
	C115.388733,163.236420 113.875092,165.804077 113.218102,165.690948 
	C106.306313,164.500992 102.800339,168.633652 99.097824,173.911667 
	C90.686348,178.833374 85.341217,185.903473 80.011314,192.988510 
	C79.798706,193.519211 79.586098,194.049927 78.839867,194.873413 
	C76.422501,196.155869 74.538757,197.145554 72.655014,198.135223 
	C72.076317,196.986435 71.497612,195.837631 71.081490,194.173126 
	C70.887367,193.101501 70.530663,192.545609 70.173965,191.989700 
	C68.370476,183.623123 66.566986,175.256561 65.198151,166.371033 
	C69.579689,161.911453 73.603210,158.044235 77.460762,154.018005 
	C99.220779,131.306503 120.996552,108.609367 142.602783,85.752144 
	C145.239410,82.962852 146.892715,79.244049 149.001724,75.956009 
	C156.463974,76.834625 163.938446,77.623672 171.382034,78.639061 
	C174.092102,79.008743 176.728592,79.917702 179.695648,80.850197 
z"/>
<path fill="#3F94FB" opacity="1.000000" stroke="none" 
	d="
M80.344101,192.914841 
	C85.341217,185.903473 90.686348,178.833374 98.840302,174.119110 
	C99.145195,174.808777 99.086876,175.541397 98.982124,176.639343 
	C97.476265,177.891235 95.828148,178.571136 94.590935,179.700989 
	C89.881004,184.002304 85.303734,188.448883 80.344101,192.914841 
z"/>
<path fill="#3F94FB" opacity="1.000000" stroke="none" 
	d="
M72.699142,198.479507 
	C74.538757,197.145554 76.422501,196.155869 78.647324,195.088470 
	C77.676956,197.211212 76.365517,199.411667 74.964172,201.967865 
	C74.163933,201.157013 73.453606,199.990402 72.699142,198.479507 
z"/>
<path fill="#4984F8" opacity="1.000000" stroke="none" 
	d="
M134.885040,246.165131 
	C126.366432,243.382050 117.847832,240.598953 109.124519,237.546616 
	C111.983742,233.459763 114.866806,229.477844 118.152092,225.861328 
	C123.695808,219.758698 129.494370,213.887589 135.547791,207.727844 
	C143.371674,212.001907 151.446045,213.737076 160.516708,213.381592 
	C159.752686,215.914795 158.895798,218.337021 157.299683,220.083801 
	C150.825760,227.168854 144.060944,233.987717 137.562668,241.051270 
	C136.304184,242.419235 135.759171,244.443573 134.885040,246.165131 
z"/>
<path fill="#8CA4F9" opacity="1.000000" stroke="none" 
	d="
M253.332489,151.747086 
	C252.918655,151.136536 252.686661,150.296707 252.595779,149.219696 
	C252.996033,149.827621 253.255188,150.672699 253.332489,151.747086 
z"/>
<path fill="#3295FB" opacity="1.000000" stroke="none" 
	d="
M47.858940,174.168472 
	C48.230953,174.485718 48.452560,174.973373 48.629417,175.736389 
	C48.292622,175.454117 48.000576,174.896500 47.858940,174.168472 
z"/>
<path fill="#8CA4F9" opacity="1.000000" stroke="none" 
	d="
M252.706085,175.005707 
	C252.549255,173.969696 252.649506,172.781433 252.979126,171.311813 
	C253.126709,172.304794 253.044937,173.579132 252.706085,175.005707 
z"/>
<path fill="#8CA4F9" opacity="1.000000" stroke="none" 
	d="
M251.696167,181.075348 
	C251.556137,180.600449 251.628204,180.033401 251.881897,179.236664 
	C252.011780,179.665710 251.960037,180.324448 251.696167,181.075348 
z"/>
<path fill="#3295FB" opacity="1.000000" stroke="none" 
	d="
M48.418270,148.087158 
	C48.612556,148.547012 48.583996,149.095963 48.370216,149.854523 
	C48.188473,149.434830 48.191948,148.805557 48.418270,148.087158 
z"/>
<path fill="#2C99FD" opacity="1.000000" stroke="none" 
	d="
M148.559479,75.828682 
	C146.892715,79.244049 145.239410,82.962852 142.602783,85.752144 
	C120.996552,108.609367 99.220779,131.306503 77.460762,154.018005 
	C73.603210,158.044235 69.579689,161.911453 65.288437,165.926941 
	C62.676586,140.764816 72.046356,119.773872 88.928101,101.785110 
	C101.739418,88.133690 117.772011,80.152260 136.716278,77.013023 
	C137.855682,76.953659 138.429962,76.699997 139.004227,76.446335 
	C142.041901,76.198006 145.079575,75.949677 148.559479,75.828682 
z"/>
<path fill="#3294FC" opacity="1.000000" stroke="none" 
	d="
M138.730988,76.391754 
	C138.429962,76.699997 137.855682,76.953659 137.116547,77.045830 
	C137.453690,76.701950 137.955704,76.519569 138.730988,76.391754 
z"/>
<path fill="#3F94FB" opacity="1.000000" stroke="none" 
	d="
M70.169388,192.273346 
	C70.530663,192.545609 70.887367,193.101501 71.091873,193.841553 
	C70.681389,193.536118 70.423096,193.046555 70.169388,192.273346 
z"/>
<path fill="#507EF7" opacity="1.000000" stroke="none" 
	d="
M135.162048,246.348434 
	C135.759171,244.443573 136.304184,242.419235 137.562668,241.051270 
	C144.060944,233.987717 150.825760,227.168854 157.299683,220.083801 
	C158.895798,218.337021 159.752686,215.914795 160.974609,213.441345 
	C172.284561,210.774170 180.207047,204.034439 186.451813,194.061859 
	C188.669800,193.124680 190.650131,192.758286 191.792206,191.579651 
	C201.703415,181.351227 211.374023,170.889221 221.311234,160.686661 
	C225.652344,156.229630 230.447403,152.214752 235.036316,147.999084 
	C235.400543,156.025482 235.764771,164.051865 235.666245,172.563293 
	C233.448975,174.219299 231.400620,175.112671 229.988495,176.607162 
	C221.883835,185.184540 213.992661,193.963318 205.910461,202.562317 
	C193.722504,215.529617 181.403015,228.373474 169.248138,241.371460 
	C168.103729,242.595245 167.734329,244.543793 167.005112,246.155838 
	C156.519882,249.370483 145.988815,248.736313 135.162048,246.348434 
z"/>
<path fill="#4B80F8" opacity="1.000000" stroke="none" 
	d="
M235.079529,147.594559 
	C230.447403,152.214752 225.652344,156.229630 221.311234,160.686661 
	C211.374023,170.889221 201.703415,181.351227 191.792206,191.579651 
	C190.650131,192.758286 188.669800,193.124680 186.655548,193.825974 
	C187.794189,189.451172 184.332336,188.573151 181.333939,187.020294 
	C183.196472,183.676712 185.022537,180.113297 187.653305,177.303253 
	C198.544769,165.669647 209.658936,154.243866 220.738098,142.787033 
	C223.928162,139.488251 227.275024,136.341095 230.905243,133.058395 
	C232.547928,137.724915 233.835342,142.457474 235.079529,147.594559 
z"/>
<path fill="#3B8FFA" opacity="1.000000" stroke="none" 
	d="
M146.274567,111.733719 
	C146.557968,111.394234 147.121674,111.081703 147.860535,110.926643 
	C147.542084,111.309647 147.048477,111.535164 146.274567,111.733719 
z"/>
<path fill="#577CF6" opacity="1.000000" stroke="none" 
	d="
M167.414246,246.191483 
	C167.734329,244.543793 168.103729,242.595245 169.248138,241.371460 
	C181.403015,228.373474 193.722504,215.529617 205.910461,202.562317 
	C213.992661,193.963318 221.883835,185.184540 229.988495,176.607162 
	C231.400620,175.112671 233.448975,174.219299 235.557251,173.022156 
	C234.053177,192.516724 225.314163,208.863419 211.850098,222.594040 
	C199.743347,234.940536 185.049973,243.102570 167.414246,246.191483 
z"/>
</svg>