<svg version="1.1" id="Layer_1" xmlns="http://www.w3.org/2000/svg" xmlns:xlink="http://www.w3.org/1999/xlink" x="0px" y="0px"
	 width="100%" viewBox="0 0 303 323" enable-background="new 0 0 303 323" xml:space="preserve">
<path fill="#000000" opacity="1.000000" stroke="none" 
	d="
M161.000000,324.000000 
	C107.333359,324.000000 54.166718,324.000000 1.000057,324.000000 
	C1.000038,216.333405 1.000038,108.666817 1.000019,1.000173 
	C101.999878,1.000115 202.999756,1.000115 303.999725,1.000057 
	C303.999817,108.666496 303.999817,216.332993 303.999908,323.999756 
	C256.500000,324.000000 209.000000,324.000000 161.000000,324.000000 
M144.364929,16.812256 
	C136.953781,19.105526 128.919128,20.255888 122.243683,23.897697 
	C98.352173,36.931774 74.528839,50.179291 51.428417,64.549622 
	C29.085817,78.448532 18.002949,99.424332 18.000528,125.959167 
	C17.998312,150.280518 17.888031,174.602539 18.029387,198.923065 
	C18.193447,227.150070 31.005045,248.150131 55.183659,262.295258 
	C75.209358,274.010803 95.465805,285.332886 115.459450,297.102051 
	C140.996140,312.134155 166.512085,312.063690 192.069031,297.492462 
	C212.689240,285.735901 233.317352,273.981110 253.680176,261.788300 
	C277.324005,247.630890 289.799072,226.665344 289.968445,198.883118 
	C290.118744,174.229507 290.184418,149.572510 289.949158,124.920227 
	C289.704285,99.265144 278.904755,78.776924 257.276245,65.089493 
	C237.401505,52.511917 216.527359,41.525261 196.375717,29.369850 
	C180.532150,19.813055 163.939529,14.245813 144.364929,16.812256 
z"/>
<path fill="#EAC749" opacity="1.000000" stroke="none" 
	d="
M144.802048,16.725784 
	C163.939529,14.245813 180.532150,19.813055 196.375717,29.369850 
	C216.527359,41.525261 237.401505,52.511917 257.276245,65.089493 
	C278.904755,78.776924 289.704285,99.265144 289.949158,124.920227 
	C290.184418,149.572510 290.118744,174.229507 289.968445,198.883118 
	C289.799072,226.665344 277.324005,247.630890 253.680176,261.788300 
	C233.317352,273.981110 212.689240,285.735901 192.069031,297.492462 
	C166.512085,312.063690 140.996140,312.134155 115.459450,297.102051 
	C95.465805,285.332886 75.209358,274.010803 55.183659,262.295258 
	C31.005045,248.150131 18.193447,227.150070 18.029387,198.923065 
	C17.888031,174.602539 17.998312,150.280518 18.000528,125.959167 
	C18.002949,99.424332 29.085817,78.448532 51.428417,64.549622 
	C74.528839,50.179291 98.352173,36.931774 122.243683,23.897697 
	C128.919128,20.255888 136.953781,19.105526 144.802048,16.725784 
M204.860535,81.148087 
	C201.694092,80.661491 199.723557,81.916817 197.976151,84.714058 
	C188.006424,100.673508 177.832504,116.505478 167.713531,132.371552 
	C163.082245,139.633194 158.417923,146.873749 153.449265,154.621811 
	C152.204178,152.894455 151.298569,151.759506 150.521805,150.542343 
	C138.159378,131.170700 125.359123,112.056870 113.678146,92.282082 
	C108.721512,83.890968 103.423233,79.633682 93.348953,80.956245 
	C85.920166,81.931511 78.260452,81.147743 69.609039,81.147743 
	C89.629562,110.677139 108.944679,139.166107 129.046127,168.814880 
	C114.484047,168.814880 101.577820,168.814880 88.472733,168.814880 
	C88.472733,176.436615 88.472733,183.473251 88.472733,191.066772 
	C104.939018,191.066772 121.016571,191.066772 137.292587,191.066772 
	C137.292587,197.338287 137.292587,203.041824 137.292587,209.304550 
	C120.788445,209.304550 104.703758,209.304550 88.371033,209.304550 
	C88.371033,216.939011 88.371033,224.005905 88.371033,231.852264 
	C104.845367,231.852264 121.037018,231.852264 137.920319,231.852264 
	C137.920319,240.668671 137.920319,248.722153 137.920319,256.836639 
	C148.215912,256.836639 157.797394,256.836639 168.027435,256.836639 
	C168.027435,248.465683 168.027435,240.403122 168.027435,232.096497 
	C170.116089,231.952606 171.575256,231.767288 173.034760,231.764725 
	C186.362900,231.741333 199.692307,231.651215 213.018448,231.815598 
	C216.508377,231.858643 217.799866,230.733231 217.610947,227.242645 
	C217.386185,223.089798 217.308670,218.895920 217.629929,214.755722 
	C217.962051,210.475693 216.676056,208.948837 212.118057,209.060898 
	C199.297440,209.376190 186.463989,209.182510 173.635666,209.156693 
	C171.878952,209.153168 170.122620,208.963150 168.328293,208.857239 
	C168.328293,202.717789 168.328293,197.140808 168.328293,190.966888 
	C184.723358,190.966888 200.793472,190.966888 217.164032,190.966888 
	C217.164032,183.314682 217.164032,176.266220 217.164032,168.602844 
	C203.719910,168.602844 190.658737,168.602844 176.413483,168.602844 
	C196.473236,139.154968 215.868942,110.681908 235.987289,81.147995 
	C224.980576,81.147995 215.382584,81.147995 204.860535,81.148087 
z"/>
<path fill="#FFFEFD" opacity="1.000000" stroke="none" 
	d="
M205.322556,81.148041 
	C215.382584,81.147995 224.980576,81.147995 235.987289,81.147995 
	C215.868942,110.681908 196.473236,139.154968 176.413483,168.602844 
	C190.658737,168.602844 203.719910,168.602844 217.164032,168.602844 
	C217.164032,176.266220 217.164032,183.314682 217.164032,190.966888 
	C200.793472,190.966888 184.723358,190.966888 168.328293,190.966888 
	C168.328293,197.140808 168.328293,202.717789 168.328293,208.857239 
	C170.122620,208.963150 171.878952,209.153168 173.635666,209.156693 
	C186.463989,209.182510 199.297440,209.376190 212.118057,209.060898 
	C216.676056,208.948837 217.962051,210.475693 217.629929,214.755722 
	C217.308670,218.895920 217.386185,223.089798 217.610947,227.242645 
	C217.799866,230.733231 216.508377,231.858643 213.018448,231.815598 
	C199.692307,231.651215 186.362900,231.741333 173.034760,231.764725 
	C171.575256,231.767288 170.116089,231.952606 168.027435,232.096497 
	C168.027435,240.403122 168.027435,248.465683 168.027435,256.836639 
	C157.797394,256.836639 148.215912,256.836639 137.920319,256.836639 
	C137.920319,248.722153 137.920319,240.668671 137.920319,231.852264 
	C121.037018,231.852264 104.845367,231.852264 88.371033,231.852264 
	C88.371033,224.005905 88.371033,216.939011 88.371033,209.304550 
	C104.703758,209.304550 120.788445,209.304550 137.292587,209.304550 
	C137.292587,203.041824 137.292587,197.338287 137.292587,191.066772 
	C121.016571,191.066772 104.939018,191.066772 88.472733,191.066772 
	C88.472733,183.473251 88.472733,176.436615 88.472733,168.814880 
	C101.577820,168.814880 114.484047,168.814880 129.046127,168.814880 
	C108.944679,139.166107 89.629562,110.677139 69.609039,81.147743 
	C78.260452,81.147743 85.920166,81.931511 93.348953,80.956245 
	C103.423233,79.633682 108.721512,83.890968 113.678146,92.282082 
	C125.359123,112.056870 138.159378,131.170700 150.521805,150.542343 
	C151.298569,151.759506 152.204178,152.894455 153.449265,154.621811 
	C158.417923,146.873749 163.082245,139.633194 167.713531,132.371552 
	C177.832504,116.505478 188.006424,100.673508 197.976151,84.714058 
	C199.723557,81.916817 201.694092,80.661491 205.322556,81.148041 
z"/>
</svg>