<svg width="163" height="40" viewBox="0 0 163 40" fill="none" xmlns="http://www.w3.org/2000/svg">
<circle cx="20" cy="20" r="19" stroke="#0B06FB" stroke-width="2"/>
<rect x="8" y="8" width="4" height="4" fill="#0B06FB"/>
<rect x="8" y="8" width="4" height="4" fill="#0B06FB"/>
<rect x="8" y="12" width="4" height="4" fill="#0B06FB"/>
<rect x="8" y="24" width="4" height="4" fill="#0B06FB"/>
<rect x="8" y="28" width="4" height="4" fill="#0B06FB"/>
<rect x="16" y="28" width="4" height="4" fill="#0B06FB"/>
<rect x="20" y="28" width="4" height="4" fill="#0B06FB"/>
<rect x="24" y="28" width="4" height="4" fill="#0B06FB"/>
<rect x="12" y="28" width="4" height="4" fill="#0B06FB"/>
<rect x="8" y="16" width="4" height="4" fill="#0B06FB"/>
<rect x="8" y="20" width="4" height="4" fill="#0B06FB"/>
<rect x="28" y="8" width="4" height="4" fill="#0B06FB"/>
<rect x="28" y="12" width="4" height="4" fill="#0B06FB"/>
<rect x="28" y="24" width="4" height="4" fill="#0B06FB"/>
<rect x="28" y="28" width="4" height="4" fill="#0B06FB"/>
<rect x="28" y="16" width="4" height="4" fill="#0B06FB"/>
<rect x="28" y="20" width="4" height="4" fill="#0B06FB"/>
<path d="M59.6563 8H62.5625V23.8906C62.5625 25.5312 62.1758 26.9961 61.4023 28.2852C60.6367 29.5664 59.5547 30.5781 58.1563 31.3203C56.7578 32.0547 55.1172 32.4219 53.2344 32.4219C51.3516 32.4219 49.7109 32.0547 48.3125 31.3203C46.9141 30.5781 45.8281 29.5664 45.0547 28.2852C44.2891 26.9961 43.9063 25.5312 43.9063 23.8906V8H46.8125V23.6563C46.8125 24.8281 47.0703 25.8711 47.5859 26.7852C48.1016 27.6914 48.8359 28.4062 49.7891 28.9297C50.75 29.4453 51.8984 29.7031 53.2344 29.7031C54.5703 29.7031 55.7188 29.4453 56.6797 28.9297C57.6406 28.4062 58.375 27.6914 58.8828 26.7852C59.3984 25.8711 59.6563 24.8281 59.6563 23.6563V8ZM70.7568 21.1719V32H67.9912V14H70.6631V16.8125H70.8975C71.3193 15.8984 71.96 15.1641 72.8193 14.6094C73.6787 14.0469 74.7881 13.7656 76.1475 13.7656C77.3662 13.7656 78.4326 14.0156 79.3467 14.5156C80.2607 15.0078 80.9717 15.7578 81.4795 16.7656C81.9873 17.7656 82.2412 19.0312 82.2412 20.5625V32H79.4756V20.75C79.4756 19.3359 79.1084 18.2344 78.374 17.4453C77.6396 16.6484 76.6318 16.25 75.3506 16.25C74.4678 16.25 73.6787 16.4414 72.9834 16.8242C72.2959 17.207 71.7529 17.7656 71.3545 18.5C70.9561 19.2344 70.7568 20.125 70.7568 21.1719ZM87.2949 32V14H90.0605V32H87.2949ZM88.7012 11C88.1621 11 87.6973 10.8164 87.3066 10.4492C86.9238 10.082 86.7324 9.64063 86.7324 9.125C86.7324 8.60938 86.9238 8.16797 87.3066 7.80078C87.6973 7.43359 88.1621 7.25 88.7012 7.25C89.2402 7.25 89.7012 7.43359 90.084 7.80078C90.4746 8.16797 90.6699 8.60938 90.6699 9.125C90.6699 9.64063 90.4746 10.082 90.084 10.4492C89.7012 10.8164 89.2402 11 88.7012 11ZM95.126 38.75V14H97.7979V16.8594H98.126C98.3291 16.5469 98.6104 16.1484 98.9697 15.6641C99.3369 15.1719 99.8604 14.7344 100.54 14.3516C101.228 13.9609 102.157 13.7656 103.329 13.7656C104.845 13.7656 106.181 14.1445 107.337 14.9023C108.493 15.6602 109.396 16.7344 110.044 18.125C110.692 19.5156 111.017 21.1562 111.017 23.0469C111.017 24.9531 110.692 26.6055 110.044 28.0039C109.396 29.3945 108.497 30.4727 107.349 31.2383C106.2 31.9961 104.876 32.375 103.376 32.375C102.22 32.375 101.294 32.1836 100.599 31.8008C99.9033 31.4102 99.3682 30.9687 98.9932 30.4766C98.6182 29.9766 98.3291 29.5625 98.126 29.2344H97.8916V38.75H95.126ZM97.8447 23C97.8447 24.3594 98.0439 25.5586 98.4424 26.5977C98.8408 27.6289 99.4229 28.4375 100.188 29.0234C100.954 29.6016 101.892 29.8906 103.001 29.8906C104.157 29.8906 105.122 29.5859 105.896 28.9766C106.677 28.3594 107.263 27.5312 107.653 26.4922C108.052 25.4453 108.251 24.2812 108.251 23C108.251 21.7344 108.056 20.5937 107.665 19.5781C107.282 18.5547 106.7 17.7461 105.919 17.1523C105.146 16.5508 104.173 16.25 103.001 16.25C101.876 16.25 100.931 16.5352 100.165 17.1055C99.3994 17.668 98.8213 18.457 98.4307 19.4727C98.04 20.4805 97.8447 21.6562 97.8447 23ZM122.782 32.375C121.048 32.375 119.552 31.9922 118.294 31.2266C117.044 30.4531 116.079 29.375 115.399 27.9922C114.728 26.6016 114.392 24.9844 114.392 23.1406C114.392 21.2969 114.728 19.6719 115.399 18.2656C116.079 16.8516 117.024 15.75 118.235 14.9609C119.454 14.1641 120.876 13.7656 122.501 13.7656C123.438 13.7656 124.364 13.9219 125.278 14.2344C126.192 14.5469 127.024 15.0547 127.774 15.7578C128.524 16.4531 129.122 17.375 129.567 18.5234C130.013 19.6719 130.235 21.0859 130.235 22.7656V23.9375H116.36V21.5469H127.423C127.423 20.5312 127.22 19.625 126.813 18.8281C126.415 18.0312 125.845 17.4023 125.103 16.9414C124.368 16.4805 123.501 16.25 122.501 16.25C121.399 16.25 120.446 16.5234 119.642 17.0703C118.845 17.6094 118.231 18.3125 117.802 19.1797C117.372 20.0469 117.157 20.9766 117.157 21.9687V23.5625C117.157 24.9219 117.392 26.0742 117.86 27.0195C118.337 27.957 118.997 28.6719 119.841 29.1641C120.685 29.6484 121.665 29.8906 122.782 29.8906C123.509 29.8906 124.165 29.7891 124.751 29.5859C125.345 29.375 125.856 29.0625 126.286 28.6484C126.716 28.2266 127.048 27.7031 127.282 27.0781L129.954 27.8281C129.673 28.7344 129.2 29.5312 128.536 30.2187C127.872 30.8984 127.052 31.4297 126.075 31.8125C125.099 32.1875 124.001 32.375 122.782 32.375ZM134.442 32V14H137.114V16.7187H137.302C137.63 15.8281 138.224 15.1055 139.083 14.5508C139.942 13.9961 140.911 13.7187 141.989 13.7187C142.192 13.7187 142.446 13.7227 142.751 13.7305C143.056 13.7383 143.286 13.75 143.442 13.7656V16.5781C143.349 16.5547 143.134 16.5195 142.798 16.4727C142.47 16.418 142.122 16.3906 141.755 16.3906C140.88 16.3906 140.099 16.5742 139.411 16.9414C138.731 17.3008 138.192 17.8008 137.794 18.4414C137.403 19.0742 137.208 19.7969 137.208 20.6094V32H134.442ZM146.721 38.75V14H149.393V16.8594H149.721C149.924 16.5469 150.205 16.1484 150.564 15.6641C150.932 15.1719 151.455 14.7344 152.135 14.3516C152.822 13.9609 153.752 13.7656 154.924 13.7656C156.439 13.7656 157.775 14.1445 158.932 14.9023C160.088 15.6602 160.99 16.7344 161.639 18.125C162.287 19.5156 162.611 21.1562 162.611 23.0469C162.611 24.9531 162.287 26.6055 161.639 28.0039C160.99 29.3945 160.092 30.4727 158.943 31.2383C157.795 31.9961 156.471 32.375 154.971 32.375C153.814 32.375 152.889 32.1836 152.193 31.8008C151.498 31.4102 150.963 30.9687 150.588 30.4766C150.213 29.9766 149.924 29.5625 149.721 29.2344H149.486V38.75H146.721ZM149.439 23C149.439 24.3594 149.639 25.5586 150.037 26.5977C150.436 27.6289 151.018 28.4375 151.783 29.0234C152.549 29.6016 153.486 29.8906 154.596 29.8906C155.752 29.8906 156.717 29.5859 157.49 28.9766C158.271 28.3594 158.857 27.5312 159.248 26.4922C159.646 25.4453 159.846 24.2812 159.846 23C159.846 21.7344 159.65 20.5937 159.26 19.5781C158.877 18.5547 158.295 17.7461 157.514 17.1523C156.74 16.5508 155.768 16.25 154.596 16.25C153.471 16.25 152.525 16.5352 151.76 17.1055C150.994 17.668 150.416 18.457 150.025 19.4727C149.635 20.4805 149.439 21.6562 149.439 23Z" fill="white"/>
</svg>
