<svg width="40" height="40" viewBox="0 0 40 40" fill="none" xmlns="http://www.w3.org/2000/svg">
<circle cx="20" cy="20" r="19" stroke="#0B06FB" stroke-width="2"/>
<rect y="10" width="4" height="4" fill="#0B06FB"/>
<rect y="14" width="4" height="4" fill="#0B06FB"/>
<rect y="2" width="4" height="4" fill="#0B06FB"/>
<rect y="6" width="4" height="4" fill="#0B06FB"/>
<rect y="22" width="4" height="4" fill="#0B06FB"/>
<rect x="5" y="22" width="4" height="4" fill="#0B06FB"/>
<rect x="20" y="34" width="4" height="4" fill="#0B06FB"/>
<rect x="10" y="22" width="4" height="4" fill="#0B06FB"/>
<rect x="15" y="22" width="4" height="4" fill="#0B06FB"/>
<rect y="18" width="4" height="4" fill="#0B06FB"/>
<rect x="20" y="14" width="4" height="4" fill="#0B06FB"/>
<rect x="25" y="14" width="4" height="4" fill="#0B06FB"/>
<rect x="30" y="14" width="4" height="4" fill="#0B06FB"/>
<rect x="35" y="14" width="4" height="4" fill="#0B06FB"/>
<rect x="35" y="18" width="4" height="4" fill="#0B06FB"/>
<rect x="35" y="22" width="4" height="4" fill="#0B06FB"/>
<rect x="25" y="22" width="4" height="4" fill="#0B06FB"/>
<rect x="30" y="22" width="4" height="4" fill="#0B06FB"/>
<rect x="20" y="22" width="4" height="4" fill="#0B06FB"/>
<rect x="20" y="18" width="4" height="4" fill="#0B06FB"/>
<rect x="20" y="26" width="4" height="4" fill="#0B06FB"/>
<rect x="20" y="30" width="4" height="4" fill="#0B06FB"/>
</svg>
