<svg width="48" height="48" viewBox="0 0 48 48" fill="none" xmlns="http://www.w3.org/2000/svg">
<rect width="48" height="48" fill="#F5F5F5"/>
<g filter="url(#filter0_d_1_25)">
<circle cx="24" cy="20" r="20" fill="#F5F5F5"/>
<circle cx="24" cy="20" r="19" stroke="#0B06FB" stroke-width="2"/>
</g>
<rect x="12" y="29" width="4" height="4" fill="#0B06FB"/>
<rect x="12" y="21" width="4" height="4" fill="#0B06FB"/>
<rect x="12" y="17" width="4" height="4" fill="#0B06FB"/>
<rect x="12" y="9" width="4" height="4" fill="#0B06FB"/>
<rect x="12" y="13" width="4" height="4" fill="#0B06FB"/>
<rect x="32" y="25" width="4" height="4" fill="#0B06FB"/>
<rect x="32" y="17" width="4" height="4" fill="#0B06FB"/>
<rect x="32" y="13" width="4" height="4" fill="#0B06FB"/>
<rect x="32" y="9" width="4" height="4" fill="#0B06FB"/>
<rect x="32" y="21" width="4" height="4" fill="#0B06FB"/>
<rect x="28" y="29" width="4" height="4" fill="#0B06FB"/>
<rect x="32" y="29" width="4" height="4" fill="#0B06FB"/>
<rect x="24" y="29" width="4" height="4" fill="#0B06FB"/>
<rect x="20" y="29" width="4" height="4" fill="#0B06FB"/>
<rect x="12" y="25" width="4" height="4" fill="#0B06FB"/>
<rect x="16" y="29" width="4" height="4" fill="#0B06FB"/>
<defs>
<filter id="filter0_d_1_25" x="0" y="0" width="48" height="48" filterUnits="userSpaceOnUse" color-interpolation-filters="sRGB">
<feFlood flood-opacity="0" result="BackgroundImageFix"/>
<feColorMatrix in="SourceAlpha" type="matrix" values="0 0 0 0 0 0 0 0 0 0 0 0 0 0 0 0 0 0 127 0" result="hardAlpha"/>
<feOffset dy="4"/>
<feGaussianBlur stdDeviation="2"/>
<feComposite in2="hardAlpha" operator="out"/>
<feColorMatrix type="matrix" values="0 0 0 0 0 0 0 0 0 0 0 0 0 0 0 0 0 0 0.25 0"/>
<feBlend mode="normal" in2="BackgroundImageFix" result="effect1_dropShadow_1_25"/>
<feBlend mode="normal" in="SourceGraphic" in2="effect1_dropShadow_1_25" result="shape"/>
</filter>
</defs>
</svg>
