<svg width="40" height="40" viewBox="0 0 40 40" fill="none" xmlns="http://www.w3.org/2000/svg">
<circle cx="20" cy="20" r="19" stroke="#0B06FB" stroke-width="2"/>
<rect x="8" y="8" width="4" height="4" fill="#0B06FB"/>
<rect x="8" y="8" width="4" height="4" fill="#0B06FB"/>
<rect x="8" y="12" width="4" height="4" fill="#0B06FB"/>
<rect x="8" y="24" width="4" height="4" fill="#0B06FB"/>
<rect x="8" y="28" width="4" height="4" fill="#0B06FB"/>
<rect x="16" y="28" width="4" height="4" fill="#0B06FB"/>
<rect x="20" y="28" width="4" height="4" fill="#0B06FB"/>
<rect x="24" y="28" width="4" height="4" fill="#0B06FB"/>
<rect x="12" y="28" width="4" height="4" fill="#0B06FB"/>
<rect x="8" y="16" width="4" height="4" fill="#0B06FB"/>
<rect x="8" y="20" width="4" height="4" fill="#0B06FB"/>
<rect x="28" y="8" width="4" height="4" fill="#0B06FB"/>
<rect x="28" y="12" width="4" height="4" fill="#0B06FB"/>
<rect x="28" y="24" width="4" height="4" fill="#0B06FB"/>
<rect x="28" y="28" width="4" height="4" fill="#0B06FB"/>
<rect x="28" y="16" width="4" height="4" fill="#0B06FB"/>
<rect x="28" y="20" width="4" height="4" fill="#0B06FB"/>
</svg>
